<?xml version="1.0" encoding="utf-8"?>
<!-- Generator: Adobe Illustrator 23.0.1, SVG Export Plug-In . SVG Version: 6.00 Build 0)  -->
<svg version="1.1" id="Layer_1" xmlns="http://www.w3.org/2000/svg" xmlns:xlink="http://www.w3.org/1999/xlink" x="0px" y="0px"
	 viewBox="0 0 92.9 19.5" style="enable-background:new 0 0 92.9 19.5;" xml:space="preserve">
<style type="text/css">
	.st0{fill:#1D5CE5;}
</style>
<title>tentwenty*</title>
<desc>Created with Sketch.</desc>
<g>
	<title>TenTwenty-Logo-2017</title>
	<path d="M1.3,8.5H0v-2l1.4-0.1l0.3-2.5H4v2.5h2.3v2.2H4.1v3.8c0,1.1,0.5,1.5,1.2,1.5c0.3,0,0.6-0.1,0.9-0.2l0.4,2
		C6,15.9,5.3,16,4.5,16c-2.3,0-3.3-1.5-3.3-3.7L1.3,8.5z"/>
	<path d="M11.4,6.1c2.7,0,4,2,4,4.5c0,0.4,0,0.8-0.1,1.2H9.7c0.2,1.4,1.2,2.1,2.5,2.1c0.7,0,1.4-0.2,2-0.6l0.9,1.7
		c-1,0.7-2.2,1-3.3,1.1C9.1,16,7,14.2,7,11.1S9.2,6.1,11.4,6.1 M13.1,10.1c0-1.1-0.5-1.8-1.6-1.8c-0.9,0-1.6,0.6-1.8,1.8H13.1z"/>
	<path d="M16.9,6.4h2.3l0.2,1.2h0.1c0.8-0.8,1.7-1.4,3-1.4c2.1,0,2.9,1.4,2.9,3.8v5.9h-2.8v-5.5c0-1.4-0.4-1.8-1.2-1.8
		c-0.7,0-1.1,0.3-1.7,0.9v6.4h-2.8V6.4z"/>
	<path d="M27.7,8.5h-1.3v-2l1.4-0.1l0.3-2.5h2.3v2.5h2.3v2.2h-2.3v3.8c0,1.1,0.5,1.5,1.2,1.5c0.3,0,0.6-0.1,0.9-0.2l0.4,2
		c-0.7,0.2-1.4,0.3-2.1,0.3c-2.3,0-3.3-1.5-3.3-3.7L27.7,8.5z"/>
	<path d="M33.3,6.4h2.8l0.9,4.4c0.2,0.9,0.3,1.8,0.4,2.8h0.1c0.2-1,0.3-1.9,0.6-2.8l1-4.4h2.4l1.1,4.4c0.2,0.9,0.4,1.8,0.6,2.8h0.1
		c0.2-1,0.3-1.9,0.4-2.8l0.9-4.4h2.6l-2.3,9.4h-3.3L40.8,12c-0.2-0.9-0.3-1.7-0.5-2.8h-0.1c-0.2,1-0.3,1.9-0.5,2.8l-0.8,3.8h-3.2
		L33.3,6.4z"/>
	<path d="M52.2,6.1c2.7,0,4,2,4,4.5c0,0.4,0,0.8-0.1,1.2h-5.7c0.2,1.4,1.2,2.1,2.5,2.1c0.7,0,1.4-0.2,2-0.6l0.9,1.7
		c-1,0.7-2.2,1-3.3,1.1c-2.7,0-4.8-1.8-4.8-4.9C47.7,8,49.9,6.1,52.2,6.1 M53.8,10.1c0-1.1-0.5-1.8-1.6-1.8c-0.9,0-1.6,0.6-1.8,1.8
		H53.8z"/>
	<path d="M57.6,6.4h2.3l0.2,1.2h0.1c0.8-0.8,1.7-1.4,3-1.4c2.1,0,2.9,1.4,2.9,3.8v5.9h-2.8v-5.5c0-1.4-0.4-1.8-1.2-1.8
		c-0.7,0-1.1,0.3-1.7,0.9v6.4h-2.8V6.4z"/>
	<path d="M68.4,8.5h-1.3v-2l1.4-0.1l0.3-2.5h2.3v2.5h2.3v2.2h-2.3v3.8c0,1.1,0.5,1.5,1.2,1.5c0.3,0,0.6-0.1,0.9-0.2l0.4,2
		c-0.7,0.2-1.4,0.3-2.1,0.3c-2.3,0-3.3-1.5-3.3-3.7L68.4,8.5z"/>
	<path d="M75.7,17.3c0.9,0,1.4-0.5,1.7-1.2l0.1-0.5l-3.6-9.2h2.8l1.4,4.1c0.3,0.9,0.5,1.7,0.7,2.7h0.1c0.2-0.9,0.4-1.8,0.6-2.7
		l1.1-4.1h2.7L80,15.9c-0.9,2.4-1.9,3.6-4.1,3.6c-0.5,0-0.9-0.1-1.3-0.2l0.5-2.1C75.3,17.2,75.5,17.3,75.7,17.3"/>
	<polygon class="st0" points="85.4,7.3 86.7,4.9 84.2,3.8 84.8,2.1 87.4,2.7 87.7,0 89.5,0 89.8,2.7 92.4,2.1 92.9,3.8 90.5,4.9 
		91.8,7.3 90.4,8.3 88.6,6.3 86.7,8.3 	"/>
</g>
</svg>
