<svg width="329" height="37" viewBox="0 0 329 37" fill="none" xmlns="http://www.w3.org/2000/svg">
<mask id="mask0_42_13246" style="mask-type:alpha" maskUnits="userSpaceOnUse" x="0" y="0" width="329" height="37">
<rect x="0.60199" y="0.0243835" width="327.844" height="36.8342" fill="#C4C4C4"/>
</mask>
<g mask="url(#mask0_42_13246)">
<path d="M164.14 2.82953C236.014 2.82954 301.073 13.2344 348.155 30.0483C371.697 38.4556 390.732 48.4611 403.876 59.559C417.021 70.6579 424.249 82.8253 424.249 95.5629C424.249 108.301 417.021 120.468 403.876 131.567C390.732 142.665 371.697 152.67 348.155 161.078C301.073 177.891 236.014 188.296 164.14 188.296C92.2652 188.296 27.2052 177.892 -19.877 161.078C-43.4189 152.67 -62.4527 142.665 -75.5967 131.567C-88.7419 120.468 -95.9707 108.301 -95.9707 95.5629C-95.9707 82.8253 -88.7419 70.6579 -75.5967 59.559C-62.4526 48.4612 -43.4188 38.4556 -19.877 30.0483C27.2052 13.2343 92.2652 2.82953 164.14 2.82953Z" fill="url(#paint0_linear_42_13246)" fill-opacity="0.3" stroke="#61C3F2" stroke-width="0.489163"/>
</g>
<defs>
<linearGradient id="paint0_linear_42_13246" x1="164.14" y1="2.58539" x2="164.14" y2="28.6207" gradientUnits="userSpaceOnUse">
<stop stop-color="#61C3F2" stop-opacity="0.26"/>
<stop offset="1" stop-color="#61C3F2" stop-opacity="0"/>
</linearGradient>
</defs>
</svg>
